<?xml version="1.0" encoding="utf-8"?>
<!-- Generator: Adobe Illustrator 21.0.0, SVG Export Plug-In . SVG Version: 6.00 Build 0)  -->
<svg version="1.1" id="图层_1" xmlns="http://www.w3.org/2000/svg" xmlns:xlink="http://www.w3.org/1999/xlink" x="0px" y="0px"
	 viewBox="0 0 1632.2 325" style="enable-background:new 0 0 1632.2 325;" xml:space="preserve">
<style type="text/css">
	.st0{fill:url(#SVGID_1_);}
	.st1{fill:url(#SVGID_2_);}
	.st2{fill:url(#SVGID_3_);}
	.st3{fill:url(#SVGID_4_);}
	.st4{fill:url(#SVGID_5_);}
	.st5{fill:url(#SVGID_6_);}
	.st6{fill:url(#SVGID_7_);}
	.st7{fill:url(#SVGID_8_);}
	.st8{fill:url(#SVGID_9_);}
	.st9{fill:url(#SVGID_10_);}
	.st10{fill:url(#SVGID_11_);}
	.st11{fill:#3E6DFF;}
	.st12{fill:url(#SVGID_12_);}
	.st13{fill:url(#SVGID_13_);}
	.st14{fill:url(#SVGID_14_);}
	.st15{fill:url(#SVGID_15_);}
</style>
<g>
	<linearGradient id="SVGID_1_" gradientUnits="userSpaceOnUse" x1="591.3765" y1="235.3412" x2="730.5979" y2="235.3412">
		<stop  offset="0" style="stop-color:#3E6DFF"/>
		<stop  offset="1" style="stop-color:#3CA8FF"/>
	</linearGradient>
	<path class="st0" d="M661,165.7c-38.4,0-69.6,31.2-69.6,69.6c0,38.4,31.2,69.6,69.6,69.6c8.4,0,16.5-1.6,23.9-4.3v-32.7
		c-6.7,4.9-15,7.9-23.9,7.9c-22.4,0-40.5-18.1-40.5-40.5c0-22.4,18.1-40.5,40.5-40.5c21.9,0,39.7,17.4,40.4,39.1l0.4-0.2v0.2h-0.4
		v71h29.2v-71h0C729.8,196.2,699,165.7,661,165.7z"/>
	<linearGradient id="SVGID_2_" gradientUnits="userSpaceOnUse" x1="282.2132" y1="170.4293" x2="645.5669" y2="170.4293">
		<stop  offset="0" style="stop-color:#3E6DFF"/>
		<stop  offset="1" style="stop-color:#3CA8FF"/>
	</linearGradient>
	<path class="st1" d="M645.6,95.4c0,0-40.5,25.6-139.6,25.6H347.8c0,0,22.7-28.3,95.6-66.8c0,0-111,26.2-161.3,90.6h208.4
		c0,0,9,0.2,22.6-0.4l-57.4,142.3h47.1l61.4-147.9C598.1,132.6,633.4,120.2,645.6,95.4z"/>
	<linearGradient id="SVGID_3_" gradientUnits="userSpaceOnUse" x1="1199.1465" y1="89.0009" x2="1357.6506" y2="89.0009">
		<stop  offset="0" style="stop-color:#3E6DFF"/>
		<stop  offset="1" style="stop-color:#3CA8FF"/>
	</linearGradient>
	<polygon class="st2" points="1349.1,82.3 1350.2,75 1314.3,75 1307.8,82.3 1252.1,82.3 1247.7,75 1212.5,75 1211.4,82.3
		1203.7,82.3 1199.1,103 1353.1,103 1357.7,82.3 	"/>
	<linearGradient id="SVGID_4_" gradientUnits="userSpaceOnUse" x1="1185.9548" y1="177.124" x2="1339.1653" y2="177.124">
		<stop  offset="0" style="stop-color:#3E6DFF"/>
		<stop  offset="1" style="stop-color:#3CA8FF"/>
	</linearGradient>
	<polygon class="st3" points="1186,186.7 1335.6,186.7 1339.2,167.5 1189.5,167.5 	"/>
	<linearGradient id="SVGID_5_" gradientUnits="userSpaceOnUse" x1="1381.2369" y1="92.6721" x2="1627.0361" y2="92.6721">
		<stop  offset="0" style="stop-color:#3E6DFF"/>
		<stop  offset="1" style="stop-color:#3CA8FF"/>
	</linearGradient>
	<polygon class="st4" points="1386.8,80.9 1381.2,104.5 1621.5,104.5 1627,80.9 	"/>
	<linearGradient id="SVGID_6_" gradientUnits="userSpaceOnUse" x1="1078.9463" y1="171.2501" x2="1191.8652" y2="171.2501">
		<stop  offset="0" style="stop-color:#3E6DFF"/>
		<stop  offset="1" style="stop-color:#3CA8FF"/>
	</linearGradient>
	<polygon class="st5" points="1165.2,111.8 1189.1,111.8 1191.9,89.7 1168.7,89.7 1172,75 1140.3,75 1137,89.7 1112.1,89.7
		1109.3,111.8 1133.5,111.8 1108.7,249.8 1082.5,249.8 1078.9,267.5 1164.1,267.5 1167.6,249.8 1140.4,249.8 	"/>
	<linearGradient id="SVGID_7_" gradientUnits="userSpaceOnUse" x1="1190.3246" y1="135.2658" x2="1346.9482" y2="135.2658">
		<stop  offset="0" style="stop-color:#3E6DFF"/>
		<stop  offset="1" style="stop-color:#3CA8FF"/>
	</linearGradient>
	<path class="st6" d="M1333.5,128.5l-0.2-0.3l-6-12h-101.7l-14.7,11.3c-5.5,4.3-10.2,6.3-14.4,6.3h-2.6l-3.6,19.2l17.3,0
		c8.2,0.9,15.1-1.3,21.3-6.8l0.2-0.2l13.7-9.2h59.7l7.4,11.8c1.1,3.9,6.3,5.8,15.4,5.8h18.9l2.7-20.7h-4.1
		C1339.2,133.7,1336.1,132,1333.5,128.5z"/>
	<linearGradient id="SVGID_8_" gradientUnits="userSpaceOnUse" x1="1172.8285" y1="234.4039" x2="1332.6827" y2="234.4039">
		<stop  offset="0" style="stop-color:#3E6DFF"/>
		<stop  offset="1" style="stop-color:#3CA8FF"/>
	</linearGradient>
	<path class="st7" d="M1172.8,269h123c17.2,0,26.8-7.6,29.6-23.2l7.2-46h-147.5L1172.8,269z M1215.4,220.5h81.9l-3.7,20.2
		c-0.9,5.8-4.7,9.1-10.8,9.1h-72.5L1215.4,220.5z"/>
	<linearGradient id="SVGID_9_" gradientUnits="userSpaceOnUse" x1="1353.8046" y1="203.4904" x2="1617.9399" y2="203.4904">
		<stop  offset="0" style="stop-color:#3E6DFF"/>
		<stop  offset="1" style="stop-color:#3CA8FF"/>
	</linearGradient>
	<path class="st8" d="M1541.5,246.8h-145.1l49.2-85.2h167.6l4.6-23.6h-240.3l-4.6,23.6h38.5l-55,92.7l-2.7,14.7h207.7
		c23.1,0,34.8-7.2,39.1-10.6c8.3-7.1,13.4-17.1,13.4-28.3c0-20.9-18.2-38-40.8-38.7c-10-14.7-27.6-23.9-46.8-23.9
		c-19.2,0-36.8,9.2-46.8,23.9c-0.1,0-0.2,0-0.3,0c-22.4,0-40.7,16.2-41.9,36.5h20.8c0.7-5.9,4.4-11.1,9.6-14.2
		c1-0.7,8.6-5.5,24.9-3.4l2.4-4.9c5.5-11.4,17.8-18.8,31.4-18.8c13.5,0,25.7,7.3,31.3,18.6l2.9,5.9c2.3,0,4.4,0.1,6.4,0.3
		c0.2,0,0.4,0,0.5,0.1c0.1,0,0.2,0,0.2,0c20.4,2.7,20.4,18.3,20.4,18.3c0,11-12.1,14.6-17.5,15.7c-0.8,0.1-1.6,0.3-2.5,0.4
		c0,0,0,0,0,0l0,0C1555.3,247.7,1541.5,246.8,1541.5,246.8z"/>
	<linearGradient id="SVGID_10_" gradientUnits="userSpaceOnUse" x1="257.1203" y1="259.0484" x2="445.6009" y2="259.0484">
		<stop  offset="0" style="stop-color:#3E6DFF"/>
		<stop  offset="1" style="stop-color:#3CA8FF"/>
	</linearGradient>
	<path class="st9" d="M428.6,231.6l-0.3,0.2c-33.7,26.6-69.9,34.8-107.7,24.2c-28.3-7.9-46.9-24-47.1-24.1l-2.6-2.3l-13.8,23.5
		l2.1,1.9c22.9,21.2,56.3,33.3,91.6,33.3c36,0,69.8-12.5,92.7-34.3l2.1-2l-14.5-22.4L428.6,231.6z"/>
	<linearGradient id="SVGID_11_" gradientUnits="userSpaceOnUse" x1="5.186" y1="162.5" x2="1094.8975" y2="162.5">
		<stop  offset="0" style="stop-color:#3E6DFF"/>
		<stop  offset="1" style="stop-color:#3CA8FF"/>
	</linearGradient>
	<path class="st10" d="M1069.8,112.6h-75.6l2.8-15.9h94.7l3.2-17.9h-94.7l3.7-20.7h-39.4l-3.7,20.7h-95l-3.2,17.9h95l-2.8,15.9
		h-75.6c-9.6,0-18.4,7.1-19.9,15.7l-11.8,66c-1.5,8.6,4.7,15.7,14.3,15.7h75.6l-2.9,16.1l-130.8-0.6
		C783.1,174.8,778.2,111,778,107.1c-0.3-5.2-0.4-9.9-0.5-13.5v0c-0.8-25-19.3-22-21.7-21.5c-12.5,2.9-23.7,10.1-23.7,10.1l0,0
		c-31.9,20.1-40.2,7.1-40.2,7.1c-3.7-3.7-7.4-7.3-11.2-10.7C583.7-6.2,469.3,1.8,438.2,5.9c-2.7,0.4-5.4,0.8-8.1,1.3l0,0v0
		c-125.3,21-190.9,95.5-190.9,95.5C13.7,114.3,4,230.2,5.3,260.4l-0.1,0v26.2h93.6c13.3,20.8,36.6,34.7,63.2,34.7
		c36.4,0,66.8-26,73.6-60.5h-32.5c-6,16.9-22.1,29.1-41.1,29.1c-24.1,0-43.6-19.5-43.6-43.6c0-24.1,19.5-43.6,43.6-43.6
		c19,0,35.1,12.1,41.1,29.1h32.5c-6.8-34.5-37.1-60.5-73.6-60.5c-41.4,0-75,33.6-75,75c0,3.5,0.3,6.9,0.8,10.3H34.1
		c14.3-137.4,215.6-127.8,215.6-127.8c73.4-75.1,156.7-93,189.7-97.2c0.3,0,150.2-22.7,247.6,85.5c42.5,0,58.8-12,58.8-12
		c0,0,0.1,0,0.1-0.1c0.8-0.5,6.5-3.8,7.3,2.9c0,0,11.9,98.1,33.1,141l144.3-0.8l-6.3,35.4h39.4l6.3-35.4h93.3l4-22.3h-93.3l2.9-16.1
		h75.6c9.3,0,18.4-7.1,19.9-15.7l11.8-66C1085.6,119.7,1079.1,112.6,1069.8,112.6z M939.9,196.4h-43.5c-5.4,0-9.1-4.1-8.2-9.1
		l2.6-14.7h53.3L939.9,196.4z M948.1,150.4h-53.3l2.7-15.2c0.9-5,6-9.1,11.5-9.1h43.5L948.1,150.4z M1034.2,187.4
		c-0.9,5-6,9.1-11.5,9.1h-43.5l4.2-23.8h53.3L1034.2,187.4z M1040.8,150.4h-53.3l4.3-24.2h43.5c5.4,0,9.1,4,8.2,9.1L1040.8,150.4z"
		/>
</g>
</svg>
