<?xml version="1.0" encoding="utf-8"?>
<!-- Generator: Adobe Illustrator 21.0.0, SVG Export Plug-In . SVG Version: 6.00 Build 0)  -->
<svg version="1.1" id="图层_1" xmlns="http://www.w3.org/2000/svg" xmlns:xlink="http://www.w3.org/1999/xlink" x="0px" y="0px"
	 viewBox="0 0 512 512" style="enable-background:new 0 0 512 512;" xml:space="preserve">
<style type="text/css">
	.st0{fill:url(#SVGID_1_);}
	.st1{fill:url(#SVGID_2_);}
	.st2{fill:url(#SVGID_3_);}
	.st3{fill:url(#SVGID_4_);}
	.st4{fill:url(#SVGID_5_);}
	.st5{fill:url(#SVGID_6_);}
	.st6{fill:url(#SVGID_7_);}
	.st7{fill:url(#SVGID_8_);}
	.st8{fill:url(#SVGID_9_);}
	.st9{fill:url(#SVGID_10_);}
	.st10{fill:url(#SVGID_11_);}
	.st11{fill:#3E6DFF;}
	.st12{fill:url(#SVGID_12_);}
	.st13{fill:url(#SVGID_13_);}
	.st14{fill:url(#SVGID_14_);}
	.st15{fill:url(#SVGID_15_);}
</style>
<g>
	<g>
		<polygon class="st11" points="319.1,322.8 319.7,318.9 300.4,318.9 296.9,322.9 267,322.9 264.7,319 245.8,319 245.2,323
			241.1,323 238.7,334.1 321.3,333.9 323.7,322.8 		"/>
		<polygon class="st11" points="231.7,379 312,378.8 313.9,368.5 233.6,368.7 		"/>
		<polygon class="st11" points="339.3,322 336.4,334.7 465.2,334.4 468.2,321.7 		"/>
		<polygon class="st11" points="220.5,338.9 233.3,338.8 234.7,326.9 222.3,327 224,319.1 207.1,319.1 205.3,327 191.9,327
			190.5,338.9 203.5,338.9 190.3,412.9 176.2,413 174.4,422.5 220.1,422.4 221.9,412.9 207.3,412.9 		"/>
		<path class="st11" d="M310.8,347.6l-0.1-0.2l-3.2-6.4l-54.6,0.1l-7.9,6.1c-3,2.3-5.5,3.4-7.7,3.4l-1.4,0l-1.9,10.3l9.3,0
			c4.4,0.5,8.1-0.7,11.4-3.7l0.1-0.1l7.3-4.9l32-0.1l4,6.3c0.6,2.1,3.4,3.1,8.3,3.1l10.1,0l1.4-11.1l-2.2,0
			C313.9,350.4,312.2,349.5,310.8,347.6z"/>
		<path class="st11" d="M224.7,423.2l66-0.1c9.2,0,14.4-4.1,15.8-12.5l3.8-24.7l-79.1,0.2L224.7,423.2z M247.5,397.1l44-0.1l-2,10.8
			c-0.5,3.1-2.5,4.9-5.8,4.9l-38.9,0.1L247.5,397.1z"/>
		<path class="st11" d="M422.5,410.8l-77.8,0.2l26.3-45.8l89.9-0.2l2.5-12.7l-128.9,0.3l-2.5,12.7l20.6,0l-29.4,49.8l-1.4,7.9
			l111.4-0.2c12.4,0,18.7-3.9,21-5.7c4.4-3.8,7.2-9.2,7.2-15.2c0-11.2-9.8-20.4-21.9-20.7c-5.4-7.9-14.8-12.8-25.1-12.8
			c-10.3,0-19.7,5-25.1,12.9c-0.1,0-0.1,0-0.2,0c-12,0-21.8,8.7-22.5,19.6l11.2,0c0.4-3.2,2.3-6,5.1-7.6c0.5-0.4,4.6-3,13.4-1.8
			l1.3-2.6c2.9-6.1,9.5-10.1,16.8-10.1c7.2,0,13.8,3.9,16.8,9.9l1.6,3.2c1.2,0,2.4,0.1,3.4,0.2c0.1,0,0.2,0,0.3,0c0,0,0.1,0,0.1,0
			c10.9,1.4,11,9.8,11,9.8c0,5.9-6.5,7.8-9.3,8.4c-0.4,0.1-0.9,0.2-1.3,0.2l0,0l0,0C429.9,411.3,422.5,410.8,422.5,410.8z"/>
		<path class="st11" d="M43.8,413l53.3,0.1L93.8,432l20.9,0l3.3-18.8l53.4-0.1l2.1-11.8l-53.4,0.1l1.5-8.6l40.2-0.1
			c5,0,9.7-3.8,10.6-8.4l6.2-35.1c0.8-4.6-2.7-8.3-7.6-8.3l-40.2,0.1l1.5-8.4l50.3-0.1l1.7-9.5l-50.3,0.1l1.9-11l-20.9,0l-1.9,11
			l-50.5,0.1l-1.7,9.5l50.5-0.1l-1.5,8.4L69.7,341c-5.1,0-9.7,3.8-10.6,8.4l-6.2,35.1c-0.8,4.6,2.5,8.3,7.6,8.3l40.2-0.1l-1.5,8.6
			l-51.8-0.2L43.8,413z M102,385.5l-23.1,0.1c-2.9,0-4.8-2.1-4.4-4.8l1.4-7.8l28.3-0.1L102,385.5z M106.3,361.1L78,361.1l1.4-8.1
			c0.5-2.7,3.2-4.8,6.1-4.8l23.1-0.1L106.3,361.1z M152.1,380.6c-0.5,2.7-3.2,4.8-6.1,4.8l-23.1,0.1l2.2-12.6l28.3-0.1L152.1,380.6z
			 M157,352.9l-1.4,8.1l-28.3,0.1l2.3-12.9l23.1-0.1C155.5,348.1,157.5,350.2,157,352.9z"/>
	</g>
	<g>
		<linearGradient id="SVGID_1_" gradientUnits="userSpaceOnUse" x1="382.6318" y1="229.9898" x2="472.7472" y2="229.9898">
			<stop  offset="0" style="stop-color:#3E6DFF"/>
			<stop  offset="1" style="stop-color:#3CA8FF"/>
		</linearGradient>
		<path class="st0" d="M427.7,184.9c-24.9,0-45.1,20.2-45.1,45.1c0,24.9,20.2,45.1,45.1,45.1c5.4,0,10.7-1,15.5-2.8v-21.2
			c-4.3,3.2-9.7,5.1-15.5,5.1c-14.5,0-26.2-11.7-26.2-26.2c0-14.5,11.7-26.2,26.2-26.2c14.2,0,25.7,11.3,26.2,25.3l0.2-0.2v0.2h-0.2
			V275h18.9v-45.9h0C472.3,204.6,452.3,184.9,427.7,184.9z"/>
		<linearGradient id="SVGID_2_" gradientUnits="userSpaceOnUse" x1="182.5157" y1="187.9734" x2="417.7082" y2="187.9734">
			<stop  offset="0" style="stop-color:#3E6DFF"/>
			<stop  offset="1" style="stop-color:#3CA8FF"/>
		</linearGradient>
		<path class="st1" d="M417.7,139.4c0,0-26.2,16.6-90.4,16.6H225c0,0,14.7-18.3,61.9-43.3c0,0-71.8,17-104.4,58.6h134.9
			c0,0,5.8,0.1,14.6-0.3l-37.2,92.1h30.5l39.8-95.7C387,163.5,409.9,155.5,417.7,139.4z"/>
		<linearGradient id="SVGID_3_" gradientUnits="userSpaceOnUse" x1="3.201" y1="182.8409" x2="508.799" y2="182.8409">
			<stop  offset="0" style="stop-color:#3E6DFF"/>
			<stop  offset="1" style="stop-color:#3CA8FF"/>
		</linearGradient>
		<path class="st2" d="M503.4,147c-0.2-3.4-0.3-6.4-0.4-8.8v0c-0.5-16.2-12.5-14.2-14-13.9c-8.1,1.8-15.3,6.5-15.3,6.5l0,0
			c-20.6,13-26,4.6-26,4.6c-2.4-2.4-4.8-4.7-7.2-6.9c-62.7-54.8-136.8-49.6-156.9-47c-1.8,0.3-3.5,0.5-5.3,0.8l0,0v0
			c-81.1,13.6-123.6,61.8-123.6,61.8C8.7,151.6,2.4,226.7,3.3,246.2l-0.1,0v17h60.6c8.6,13.5,23.7,22.5,40.9,22.5
			c23.6,0,43.2-16.8,47.6-39.1h-21c-3.9,10.9-14.3,18.8-26.6,18.8c-15.6,0-28.2-12.6-28.2-28.2c0-15.6,12.6-28.2,28.2-28.2
			c12.3,0,22.7,7.9,26.6,18.8h21c-4.4-22.3-24-39.1-47.6-39.1c-26.8,0-48.6,21.7-48.6,48.6c0,2.3,0.2,4.5,0.5,6.7H21.9
			c9.2-88.9,139.6-82.7,139.6-82.7c47.5-48.6,101.4-60.2,122.8-62.9c0.2,0,97.2-14.7,160.2,55.4c27.5,0,38.1-7.7,38.1-7.7
			c0,0,0,0,0.1,0c0.5-0.3,4.2-2.4,4.8,1.9c0,0,7.7,63.5,21.4,91.3L503.4,147z"/>
		<linearGradient id="SVGID_4_" gradientUnits="userSpaceOnUse" x1="166.2736" y1="245.3352" x2="288.2734" y2="245.3352">
			<stop  offset="0" style="stop-color:#3E6DFF"/>
			<stop  offset="1" style="stop-color:#3CA8FF"/>
		</linearGradient>
		<path class="st3" d="M277.3,227.6l-0.2,0.2c-21.8,17.2-45.3,22.5-69.7,15.7c-18.3-5.1-30.4-15.5-30.5-15.6l-1.7-1.5l-8.9,15.2
			l1.3,1.2c14.8,13.7,36.4,21.5,59.3,21.5c23.3,0,45.2-8.1,60-22.2l1.4-1.3l-9.4-14.5L277.3,227.6z"/>
	</g>
</g>
</svg>
